{
  "accessors": [
    {
      "bufferView": 2,
      "componentType": 5126,
      "count": 25387,
      "max": [
        10.374220848083496,
        15.01971435546875,
        11.31348705291748
      ],
      "min": [
        1.4364876747131348,
        -0.04314446449279785,
        -11.389420509338379
      ],
      "type": "VEC3"
    },
    {
      "bufferView": 2,
      "byteOffset": 304644,
      "componentType": 5126,
      "count": 25387,
      "max": [
        0.9999962449073792,
        0.9998600482940674,
        0.999987006187439
      ],
      "min": [
        -0.9999971389770508,
        -0.9999957084655762,
        -0.9996849894523621
      ],
      "type": "VEC3"
    },
    {
      "bufferView": 1,
      "componentType": 5126,
      "count": 25387,
      "max": [
        0.9975060224533081,
        0.9981970191001892
      ],
      "min": [
        0.0019039999460801482,
        0.0018470287322998047
      ],
      "type": "VEC2"
    },
    {
      "bufferView": 0,
      "componentType": 5125,
      "count": 140442,
      "type": "SCALAR"
    },
    {
      "bufferView": 2,
      "byteOffset": 609288,
      "componentType": 5126,
      "count": 25387,
      "max": [
        -1.4364876747131348,
        15.01971435546875,
        11.31348705291748
      ],
      "min": [
        -10.374220848083496,
        -0.04314446449279785,
        -11.389420509338379
      ],
      "type": "VEC3"
    },
    {
      "bufferView": 2,
      "byteOffset": 913932,
      "componentType": 5126,
      "count": 25387,
      "max": [
        0.9999971389770508,
        0.9998600482940674,
        0.999987006187439
      ],
      "min": [
        -0.9999962449073792,
        -0.9999957084655762,
        -0.9996849894523621
      ],
      "type": "VEC3"
    },
    {
      "bufferView": 1,
      "byteOffset": 203096,
      "componentType": 5126,
      "count": 25387,
      "max": [
        0.9975060224533081,
        0.9981970191001892
      ],
      "min": [
        0.0019039999460801482,
        0.0018470287322998047
      ],
      "type": "VEC2"
    },
    {
      "bufferView": 0,
      "byteOffset": 561768,
      "componentType": 5125,
      "count": 140442,
      "type": "SCALAR"
    }
  ],
  "asset": {
    "extras": {
      "author": "Vincent Page (https://sketchfab.com/vincentpage)",
      "license": "SKETCHFAB Editorial (https://sketchfab.com/licenses)",
      "source": "https://sketchfab.com/3d-models/nike-air-jordan1-x-off-white-nike-76b8cf5581af485488fc2dcd1a83fce0",
      "title": "Nike Air Jordan1 x Off-White NIKE"
    },
    "generator": "Sketchfab-12.82.2",
    "version": "2.0"
  },
  "bufferViews": [
    {
      "buffer": 0,
      "byteLength": 1123536,
      "name": "floatBufferViews",
      "target": 34963
    },
    {
      "buffer": 0,
      "byteLength": 406192,
      "byteOffset": 1123536,
      "byteStride": 8,
      "name": "floatBufferViews",
      "target": 34962
    },
    {
      "buffer": 0,
      "byteLength": 1218576,
      "byteOffset": 1529728,
      "byteStride": 12,
      "name": "floatBufferViews",
      "target": 34962
    }
  ],
  "buffers": [
    {
      "byteLength": 2748304,
      "uri": "scene.bin"
    }
  ],
  "extensionsUsed": [
    "KHR_materials_unlit"
  ],
  "images": [
    {
      "uri": "textures/lambert2_baseColor.jpeg"
    },
    {
      "uri": "textures/air_jordan1_Off_White_NIKElambert2_baseColor.jpeg"
    }
  ],
  "materials": [
    {
      "doubleSided": true,
      "extensions": {
        "KHR_materials_unlit": {}
      },
      "name": "lambert2",
      "pbrMetallicRoughness": {
        "baseColorTexture": {
          "index": 0
        },
        "metallicFactor": 0.0
      }
    },
    {
      "doubleSided": true,
      "extensions": {
        "KHR_materials_unlit": {}
      },
      "name": "air_jordan1_Off_White_NIKElambert2",
      "pbrMetallicRoughness": {
        "baseColorTexture": {
          "index": 1
        },
        "metallicFactor": 0.0
      }
    }
  ],
  "meshes": [
    {
      "name": "polySurface1_lambert2_0",
      "primitives": [
        {
          "attributes": {
            "NORMAL": 1,
            "POSITION": 0,
            "TEXCOORD_0": 2
          },
          "indices": 3,
          "material": 0,
          "mode": 4
        }
      ]
    },
    {
      "name": "polySurface2_air_jordan1_Off_White_NIKE:lambert2_0",
      "primitives": [
        {
          "attributes": {
            "NORMAL": 5,
            "POSITION": 4,
            "TEXCOORD_0": 6
          },
          "indices": 7,
          "material": 1,
          "mode": 4
        }
      ]
    }
  ],
  "nodes": [
    {
      "children": [
        1
      ],
      "matrix": [
        1.0,
        0.0,
        0.0,
        0.0,
        0.0,
        2.220446049250313e-16,
        -1.0,
        0.0,
        0.0,
        1.0,
        2.220446049250313e-16,
        0.0,
        0.0,
        0.0,
        0.0,
        1.0
      ],
      "name": "Sketchfab_model"
    },
    {
      "children": [
        2
      ],
      "matrix": [
        0.009999999776482582,
        0.0,
        0.0,
        0.0,
        0.0,
        0.0,
        0.009999999776482582,
        0.0,
        0.0,
        -0.009999999776482582,
        0.0,
        0.0,
        0.0,
        0.0,
        0.0,
        1.0
      ],
      "name": "4810c803a53d4a5c9b426e63b8488949.fbx"
    },
    {
      "children": [
        3
      ],
      "name": "RootNode"
    },
    {
      "children": [
        4,
        6
      ],
      "name": "air_jordan1_Off_White_NIKE:air_jordan1_Off_White_NIKE"
    },
    {
      "children": [
        5
      ],
      "name": "polySurface1"
    },
    {
      "mesh": 0,
      "name": "polySurface1_lambert2_0"
    },
    {
      "children": [
        7
      ],
      "name": "polySurface2"
    },
    {
      "mesh": 1,
      "name": "polySurface2_air_jordan1_Off_White_NIKE:lambert2_0"
    }
  ],
  "samplers": [
    {
      "magFilter": 9729,
      "minFilter": 9987,
      "wrapS": 10497,
      "wrapT": 10497
    }
  ],
  "scene": 0,
  "scenes": [
    {
      "name": "Sketchfab_Scene",
      "nodes": [
        0
      ]
    }
  ],
  "textures": [
    {
      "sampler": 0,
      "source": 0
    },
    {
      "sampler": 0,
      "source": 1
    }
  ]
}
